<mxfile host="65bd71144e">
    <diagram name="PÃ¡gina-1" id="EWui9_BBBTPOFkJwEO8o">
        <mxGraphModel dx="784" dy="532" grid="1" gridSize="10" guides="1" tooltips="1" connect="1" arrows="1" fold="1" page="1" pageScale="1" pageWidth="827" pageHeight="1169" math="0" shadow="0">
            <root>
                <mxCell id="0"/>
                <mxCell id="1" parent="0"/>
                <mxCell id="2msGdjdWdhmhKFEAXiqz-15" value="INICIO" style="strokeWidth=2;html=1;shape=mxgraph.flowchart.terminator;whiteSpace=wrap;fillColor=#008a00;fontColor=#ffffff;strokeColor=#005700;" parent="1" vertex="1">
                    <mxGeometry x="370" y="170" width="100" height="60" as="geometry"/>
                </mxCell>
                <mxCell id="2msGdjdWdhmhKFEAXiqz-16" value="" style="endArrow=classic;html=1;rounded=0;" parent="1" edge="1">
                    <mxGeometry width="50" height="50" relative="1" as="geometry">
                        <mxPoint x="420" y="230" as="sourcePoint"/>
                        <mxPoint x="420" y="310" as="targetPoint"/>
                    </mxGeometry>
                </mxCell>
                <mxCell id="2msGdjdWdhmhKFEAXiqz-20" value="RESUL =&amp;nbsp; N1 + N2" style="rounded=1;whiteSpace=wrap;html=1;absoluteArcSize=1;arcSize=14;strokeWidth=2;fillColor=#0050ef;fontColor=#ffffff;strokeColor=#001DBC;" parent="1" vertex="1">
                    <mxGeometry x="345" y="470" width="150" height="60" as="geometry"/>
                </mxCell>
                <mxCell id="2msGdjdWdhmhKFEAXiqz-21" value="N1,N2" style="verticalLabelPosition=middle;verticalAlign=middle;html=1;shape=trapezoid;perimeter=trapezoidPerimeter;whiteSpace=wrap;size=0.23;arcSize=10;flipV=1;labelPosition=center;align=center;direction=east;" parent="1" vertex="1">
                    <mxGeometry x="340" y="320" width="160" height="60" as="geometry"/>
                </mxCell>
                <mxCell id="2msGdjdWdhmhKFEAXiqz-24" value="" style="endArrow=classic;html=1;rounded=0;" parent="1" edge="1">
                    <mxGeometry width="50" height="50" relative="1" as="geometry">
                        <mxPoint x="419.58000000000004" y="380" as="sourcePoint"/>
                        <mxPoint x="419.29" y="465" as="targetPoint"/>
                    </mxGeometry>
                </mxCell>
                <mxCell id="2msGdjdWdhmhKFEAXiqz-25" value="" style="endArrow=classic;html=1;rounded=0;" parent="1" edge="1">
                    <mxGeometry width="50" height="50" relative="1" as="geometry">
                        <mxPoint x="419.29" y="535" as="sourcePoint"/>
                        <mxPoint x="419.29" y="635" as="targetPoint"/>
                    </mxGeometry>
                </mxCell>
                <mxCell id="2msGdjdWdhmhKFEAXiqz-26" value="RESUL" style="verticalLabelPosition=middle;verticalAlign=middle;html=1;shape=trapezoid;perimeter=trapezoidPerimeter;whiteSpace=wrap;size=0.23;arcSize=10;flipV=1;labelPosition=center;align=center;direction=west;" parent="1" vertex="1">
                    <mxGeometry x="340" y="640" width="160" height="60" as="geometry"/>
                </mxCell>
                <mxCell id="2msGdjdWdhmhKFEAXiqz-27" value="" style="endArrow=classic;html=1;rounded=0;" parent="1" edge="1">
                    <mxGeometry width="50" height="50" relative="1" as="geometry">
                        <mxPoint x="419.29" y="700" as="sourcePoint"/>
                        <mxPoint x="419.29" y="790" as="targetPoint"/>
                    </mxGeometry>
                </mxCell>
                <mxCell id="2msGdjdWdhmhKFEAXiqz-28" value="FIN" style="strokeWidth=2;html=1;shape=mxgraph.flowchart.terminator;whiteSpace=wrap;fillColor=#a20025;fontColor=#ffffff;strokeColor=#6F0000;" parent="1" vertex="1">
                    <mxGeometry x="370" y="790" width="100" height="60" as="geometry"/>
                </mxCell>
            </root>
        </mxGraphModel>
    </diagram>
</mxfile>